PathFileType	4	(X/Y/Z)	G:\TennisProject\Miami_Dimitrov_Sinner_masked_Sports2D\Miami_Dimitrov_Sinner_masked_Sports2D_m_person00.trc
DataRate	CameraRate	NumFrames	NumMarkers	Units	OrigDataRate	OrigDataStartFrame	OrigNumFrames
25	25	11	22	m	25	0	499
Frame#	Time	Hip			RHip			RKnee			RAnkle			RBigToe			RSmallToe			RHeel			LHip			LKnee			LAnkle			LBigToe			LSmallToe			LHeel			Neck			Head			Nose			RShoulder			RElbow			RWrist			LShoulder			LElbow			LWrist		
		X1	Y1	Z1	X2	Y2	Z2	X3	Y3	Z3	X4	Y4	Z4	X5	Y5	Z5	X6	Y6	Z6	X7	Y7	Z7	X8	Y8	Z8	X9	Y9	Z9	X10	Y10	Z10	X11	Y11	Z11	X12	Y12	Z12	X13	Y13	Z13	X14	Y14	Z14	X15	Y15	Z15	X16	Y16	Z16	X17	Y17	Z17	X18	Y18	Z18	X19	Y19	Z19	X20	Y20	Z20	X21	Y21	Z21	X22	Y22	Z22
0	0.0	11.99816355527286	0.7732896258745129	0.0	11.870604201866554	0.7901385676676559	0.0	11.73667757227735	0.3850126168565035	0.0	11.650819183351048	0.028511222597254793	0.0	11.57663253692384	-0.06421265900470127	0.0	11.545741078642058	-0.042413842426761036	0.0	11.664383016770941	-0.037338699646283405	0.0	12.129840027292316	0.8048124862420246	0.0	12.325419237027283	0.42355486161256006	0.0	12.490333577250711	0.024539154242532266	0.0	12.499829793917318	-0.09847237164300168	0.0	12.565655325885247	-0.08051375580519815	0.0	12.495107365082104	-0.04136085866800905	0.0	11.942520689675789	1.278415467394252	0.0	11.909837268565262	1.6122615225025148	0.0	11.933023711249495	1.4014255736772558	0.0	11.771615329012858	1.1895310025673267	0.0	11.676461710338	0.9208790672446703	0.0	11.861788721618247	0.7944818478931418	0.0	12.122946765353515	1.2398942197404403	0.0	12.190261495296472	0.9985458763110848	0.0	12.156182287004032	0.8093589497205702	0.0
1	0.04	12.013521997808189	0.7758784697688764	0.0	11.884166809114827	0.7671775350268532	0.0	11.73980895027809	0.36792872472156396	0.0	11.655359208429791	0.03273452428917814	0.0	11.575391899974665	-0.06420984580967883	0.0	11.547376233035212	-0.04170719643021411	0.0	11.664622831899068	-0.028358881621909617	0.0	12.146366666795604	0.7883280190311392	0.0	12.31823514056235	0.42186660330172226	0.0	12.419641489419144	0.023962495674521217	0.0	12.435829402942504	-0.11353183604294215	0.0	12.489244921856939	-0.08857911408894165	0.0	12.414411276441559	-0.0415200366497355	0.0	11.96186320381563	1.2771305796239731	0.0	11.933151435598745	1.5784768572648844	0.0	11.949315723694394	1.4011472370601177	0.0	11.781826237793787	1.1894676250294576	0.0	11.707921945027952	0.9175490836330106	0.0	11.895627109628428	0.7848779231041787	0.0	12.151567860935483	1.2280434139408396	0.0	12.205314515433429	0.9866015370747393	0.0	12.13064536284887	0.8060086179295243	0.0
2	0.08	12.028869300803578	0.7602272336285195	0.0	11.89931112225584	0.7406413286835941	0.0	11.74688014412253	0.35483362559450365	0.0	11.657652834883677	0.032471875881384504	0.0	11.57070455648457	-0.06414806670208184	0.0	11.545818735281843	-0.04008949910550559	0.0	11.665192631084798	-0.027415089523023968	0.0	12.161716588552698	0.7620711106627003	0.0	12.311189959919698	0.40715948896899645	0.0	12.374589290793313	0.009712446165210257	0.0	12.401590326862294	-0.12413028601189399	0.0	12.450122285202186	-0.09860521638128085	0.0	12.360572040888687	-0.05615911765892633	0.0	11.980824965802684	1.2687802111995574	0.0	11.953584545166898	1.556925757546335	0.0	11.966215352008087	1.3949097181419563	0.0	11.801204895709779	1.1770383960403885	0.0	11.734044073463732	0.9060078913968871	0.0	11.909709174594479	0.774399764285617	0.0	12.174426409684282	1.2140111107958906	0.0	12.226258151213992	0.9672917203346642	0.0	12.12913412719238	0.7883330694739897	0.0
3	0.12	12.047776819906254	0.7375510306292912	0.0	11.918158834816456	0.7256926447411811	0.0	11.761402392010714	0.35244409508032215	0.0	11.659786557368458	0.02888373573903856	0.0	11.566944754579398	-0.061719219349863366	0.0	11.543155953386812	-0.03609791727117352	0.0	11.665788024951896	-0.030905130206589807	0.0	12.18010623902873	0.7424768474617749	0.0	12.309392256208472	0.3871827188269295	0.0	12.3622068511357	-0.010572452295727383	0.0	12.399572564033216	-0.1284186172229546	0.0	12.446117076314868	-0.10753015461428912	0.0	12.345411026499345	-0.0746363543104106	0.0	12.004387800372424	1.2579080619690794	0.0	11.976515542426707	1.5503203718358287	0.0	11.986840322221981	1.3845067698945845	0.0	11.82872082062575	1.1593119637982534	0.0	11.757542373648777	0.8902013203151453	0.0	11.91709526890918	0.7634357973912098	0.0	12.195938642937081	1.200935440335508	0.0	12.257820882352815	0.9437532464217037	0.0	12.15114382852901	0.7691637572512781	0.0
4	0.16	12.072938871272283	0.7297157021836714	0.0	11.94295814941621	0.7268737348168283	0.0	11.785111164133369	0.35988481463558225	0.0	11.662183960019359	0.03210431008845934	0.0	11.56308003836195	-0.05923623524041656	0.0	11.538564943078192	-0.03103899574211759	0.0	11.664507097759083	-0.027669755583824514	0.0	12.202500382533877	0.7408303743345778	0.0	12.318006578389548	0.37713159530256724	0.0	12.367961187408765	-0.019947800696239436	0.0	12.406439960629836	-0.12862579049704995	0.0	12.451647994310159	-0.11137923352010924	0.0	12.353428584241463	-0.08058805662530796	0.0	12.034975917836215	1.2558807176897282	0.0	12.006652105079226	1.5527897320921706	0.0	12.016372155329211	1.3824118928172302	0.0	11.86009587323513	1.1540674259062313	0.0	11.784595612236595	0.8837258383626156	0.0	11.939486580656506	0.7594349020939691	0.0	12.224268014227167	1.1982144326067015	0.0	12.296887323056975	0.9333431070626174	0.0	12.185862387631865	0.7731509623625672	0.0
5	0.2	12.10194914626517	0.742683295772219	0.0	11.973475639818075	0.7331128420786531	0.0	11.816426970822768	0.3692439213490984	0.0	11.659577587218408	0.04430780604840218	0.0	11.551850417438947	-0.06271977977344276	0.0	11.527287000273871	-0.029315469225670444	0.0	11.655510081821815	-0.016362006461738077	0.0	12.22581350030825	0.7483563263217148	0.0	12.333547125645362	0.3758765488276469	0.0	12.376035466798298	-0.016305680540998842	0.0	12.406186510711612	-0.12929785493718796	0.0	12.453479633288039	-0.11209223282551106	0.0	12.362350057539688	-0.07598128156907598	0.0	12.069341546080295	1.269127987770203	0.0	12.041169857048613	1.5630416134820795	0.0	12.054580677303072	1.3986526360823077	0.0	11.893674534773828	1.1688494021223843	0.0	11.815893246784311	0.8951140360092676	0.0	11.976047153699838	0.7711011834553515	0.0	12.260174062132283	1.21253441079059	0.0	12.336417021208023	0.9475054031872939	0.0	12.22224472179158	0.8044326487868612	0.0
6	0.24	12.131366467207508	0.764310807078204	0.0	12.00698395379987	0.7442673441734982	0.0	11.852791396444719	0.3734500714157001	0.0	11.654805260210116	0.05502116240777039	0.0	11.548138404397411	-0.07047085979343154	0.0	11.522970936069138	-0.03303405521623426	0.0	11.64341564205735	-0.0021455548940078352	0.0	12.251661127118465	0.7598882453787504	0.0	12.347592719798897	0.37320594236709803	0.0	12.381407379285934	-0.01441126061289254	0.0	12.406406938935568	-0.13212063177705666	0.0	12.456347075904308	-0.11326407155188568	0.0	12.363137142166485	-0.07618307997637708	0.0	12.104426033603602	1.2936896749236906	0.0	12.075332474950532	1.585370057815116	0.0	12.093863611215392	1.4274280812409414	0.0	11.928741931727185	1.1958556133261482	0.0	11.847462107509047	0.9201881397002543	0.0	12.016803192153734	0.7925430766979686	0.0	12.298147880180437	1.2399159635166122	0.0	12.37523366368021	0.9751113626104879	0.0	12.24791405316032	0.8436569758710756	0.0
7	0.28	12.159696606281134	0.7795617401073845	0.0	12.040350061276694	0.7613249322102886	0.0	11.893435789013212	0.36891799909393236	0.0	11.670640285885254	0.06879742736062489	0.0	11.589994171299095	-0.07187670336225	0.0	11.55859824151654	-0.03634597628895552	0.0	11.655152881920163	0.026484592924800328	0.0	12.281704162458013	0.7733512139695141	0.0	12.35901166958293	0.3661500858591808	0.0	12.384087397089807	-0.022745080154231746	0.0	12.415070711979565	-0.13620454272651836	0.0	12.46574122227397	-0.11646027922650942	0.0	12.358609774100776	-0.08807764155361941	0.0	12.136586489565572	1.322043960686306	0.0	12.10608271638081	1.6141380805141776	0.0	12.12548398354065	1.4561914165471668	0.0	11.962575756129448	1.2234570056844334	0.0	11.876019773480127	0.9509699647098395	0.0	12.053189656184262	0.8128894304323014	0.0	12.332883900956343	1.2690368076927887	0.0	12.413926172871319	0.9985648165074438	0.0	12.260931255424302	0.8726458355300635	0.0
8	0.32	12.185576315533767	0.7881000017537587	0.0	12.069759563736195	0.7762955578650388	0.0	11.936329240570505	0.3611809114408753	0.0	11.722460652511813	0.09760000600956348	0.0	11.680790662060344	-0.05952689652282173	0.0	11.637886029733956	-0.028038844927478428	0.0	11.706678529481318	0.07625591223602407	0.0	12.309678789087691	0.7842197625646893	0.0	12.374864302028477	0.3622259465801118	0.0	12.388164260145581	-0.028209309076310113	0.0	12.423786481230028	-0.1422804694634645	0.0	12.475778924392285	-0.12464543289049917	0.0	12.361479310152927	-0.0956485902221524	0.0	12.162229320720332	1.3471453067829253	0.0	12.131881827475627	1.6378209378530164	0.0	12.14621174845235	1.4775472681176713	0.0	11.989428486729041	1.2467871019443724	0.0	11.89861615875211	0.9825016639826474	0.0	12.076413104460581	0.8359090348188811	0.0	12.36216164893085	1.2901034276689245	0.0	12.447083273427621	1.013107521717759	0.0	12.266229679796256	0.891359295264898	0.0
9	0.36	12.208879608832136	0.7965911535081791	0.0	12.093191390984067	0.786522916380558	0.0	11.978090893496733	0.36012157200999784	0.0	11.790688233064184	0.12505927767361266	0.0	11.771476099557894	-0.04088500629024921	0.0	11.719399783168031	-0.009712160973644291	0.0	11.776075822838575	0.11507574918242869	0.0	12.331455615445696	0.792407419648765	0.0	12.403752220652434	0.370028611174547	0.0	12.40480413156697	-0.014935213852834068	0.0	12.421960158046629	-0.14842689407551518	0.0	12.477977534610094	-0.13568481459182732	0.0	12.385252956379277	-0.07868624224786551	0.0	12.18343543486309	1.3621469390895922	0.0	12.15397692838038	1.6529144900912904	0.0	12.16242320425835	1.4896167806957028	0.0	12.007364896907507	1.26350879700739	0.0	11.91559598828053	1.0076578777852996	0.0	12.089411763910098	0.8658837856744095	0.0	12.38613432142732	1.3001118918295274	0.0	12.469580404034371	1.0237701279909905	0.0	12.280270905729473	0.9088729531877193	0.0
10	0.4	12.233008894348862	0.7997027347073757	0.0	12.11548587785034	0.7899669360276186	0.0	12.019129203313664	0.36506355475898056	0.0	11.848674235770616	0.12200168499991255	0.0	11.82899778299224	-0.0382199897923034	0.0	11.773880576561124	-0.0067298623997538625	0.0	11.836839403043617	0.10803935433670785	0.0	12.353891926751947	0.79451684344106	0.0	12.448770377235222	0.3829365779238408	0.0	12.447401696516113	0.010874961301217078	0.0	12.426545131777091	-0.14530000157355424	0.0	12.488981331934763	-0.13594294216670338	0.0	12.435259933267329	-0.044790957231877884	0.0	12.204121908221804	1.3630512729533582	0.0	12.175239579165934	1.6561934371651315	0.0	12.182763362019122	1.4908427534429514	0.0	12.02390700484445	1.2660098342399777	0.0	11.935281776286049	1.0145503004634786	0.0	12.104509013591057	0.8874794328392283	0.0	12.405184049903243	1.2995446720495873	0.0	12.485052403443332	1.0312885733434032	0.0	12.327309935313002	0.9179579440426994	0.0
